<?xml version="1.0" encoding="UTF-8"?>
<svg width="512px" height="512px" viewBox="0 0 512 512" version="1.1" xmlns="http://www.w3.org/2000/svg">
    <title>Under Maintenance</title>
    <g stroke="none" stroke-width="1" fill="none" fill-rule="evenodd">
        <circle fill="#FFF1E8" cx="256" cy="256" r="256"></circle>
        <g transform="translate(112.000000, 112.000000)">
            <circle fill="#EF594E" cx="144" cy="144" r="128" opacity="0.2"></circle>
            <path d="M144,48 C189.019,48 232,74.981 232,120 C232,165.019 189.019,192 144,192 C98.981,192 56,165.019 56,120 C56,74.981 98.981,48 144,48 Z" fill="#EF594E" opacity="0.3"></path>
            <path d="M92,180 L196,180 C202.627,180 208,185.373 208,192 L208,232 C208,238.627 202.627,244 196,244 L92,244 C85.373,244 80,238.627 80,232 L80,192 C80,185.373 85.373,180 92,180 Z" fill="#1B3099"></path>
            <path d="M144,40 C171.614,40 194,62.386 194,90 C194,117.614 171.614,140 144,140 C116.386,140 94,117.614 94,90 C94,62.386 116.386,40 144,40 Z" fill="#EF594E"></path>
            <path d="M144,68 C156.15,68 166,77.85 166,90 C166,102.15 156.15,112 144,112 C131.85,112 122,102.15 122,90 C122,77.85 131.85,68 144,68 Z" fill="#FFFFFF"></path>
            <path d="M126,200 L162,200 C165.314,200 168,202.686 168,206 L168,218 C168,221.314 165.314,224 162,224 L126,224 C122.686,224 120,221.314 120,218 L120,206 C120,202.686 122.686,200 126,200 Z" fill="#EF594E"></path>
            <rect fill="#FFFFFF" x="132" y="208" width="24" height="8" rx="4"></rect>
            <rect fill="#1B3099" transform="translate(144.000000, 180.000000) rotate(45.000000) translate(-144.000000, -180.000000) " x="88" y="176" width="112" height="8" rx="4"></rect>
            <rect fill="#1B3099" transform="translate(144.000000, 180.000000) rotate(-45.000000) translate(-144.000000, -180.000000) " x="88" y="176" width="112" height="8" rx="4"></rect>
            <path d="M208,130 L224,130 C227.314,130 230,132.686 230,136 L230,144 C230,147.314 227.314,150 224,150 L208,150 C204.686,150 202,147.314 202,144 L202,136 C202,132.686 204.686,130 208,130 Z" fill="#1B3099"></path>
            <path d="M64,130 L80,130 C83.314,130 86,132.686 86,136 L86,144 C86,147.314 83.314,150 80,150 L64,150 C60.686,150 58,147.314 58,144 L58,136 C58,132.686 60.686,130 64,130 Z" fill="#1B3099"></path>
        </g>
    </g>
</svg>
